<svg xmlns="http://www.w3.org/2000/svg" viewBox="0 0 512 512">
  <rect width="512" height="512" rx="96" fill="#3B82F6"/>
  <g transform="translate(128, 100)">
    <!-- 云朵主体 -->
    <path d="M64 180 C20 180 0 150 0 120 C0 80 30 60 60 55 C55 25 80 0 120 0 C155 0 180 20 185 50 C195 35 215 28 235 35 C260 45 268 70 260 90 C280 85 300 100 300 125 C300 155 275 180 245 180 Z" fill="white" opacity="0.95"/>
    <!-- 旅行帽 -->
    <ellipse cx="140" cy="45" rx="40" ry="12" fill="#F59E0B"/>
    <rect x="120" y="25" width="40" height="22" rx="5" fill="#F59E0B"/>
    <rect x="108" y="45" width="64" height="8" rx="4" fill="#D97706"/>
    <!-- 眼睛 -->
    <circle cx="105" cy="105" r="8" fill="#1E293B"/>
    <circle cx="185" cy="105" r="8" fill="#1E293B"/>
    <circle cx="107" cy="103" r="3" fill="white"/>
    <circle cx="187" cy="103" r="3" fill="white"/>
    <!-- 腮红 -->
    <ellipse cx="80" cy="125" rx="12" ry="8" fill="#FCA5A5" opacity="0.6"/>
    <ellipse cx="210" cy="125" rx="12" ry="8" fill="#FCA5A5" opacity="0.6"/>
    <!-- 微笑 -->
    <path d="M120 130 Q145 155 170 130" fill="none" stroke="#1E293B" stroke-width="4" stroke-linecap="round"/>
    <!-- 背包 -->
    <rect x="215" y="130" width="35" height="45" rx="8" fill="#60A5FA"/>
    <rect x="220" y="135" width="25" height="10" rx="3" fill="#93C5FD"/>
    <circle cx="232" cy="160" r="4" fill="#1E40AF"/>
  </g>
</svg>
